<?xml version="1.0" standalone="no"?>
<!DOCTYPE svg PUBLIC "-//W3C//DTD SVG 20010904//EN"
 "http://www.w3.org/TR/2001/REC-SVG-20010904/DTD/svg10.dtd">
<svg version="1.0" xmlns="http://www.w3.org/2000/svg"
 width="513.000000pt" height="513.000000pt" viewBox="0 0 513.000000 513.000000"
 preserveAspectRatio="xMidYMid meet">
<metadata>
Created by potrace 1.11, written by Peter Selinger 2001-2013
</metadata>
<g transform="translate(0.000000,513.000000) scale(0.100000,-0.100000)"
fill="#000000" stroke="none">
<path d="M846 4210 c-29 -35 -28 -66 6 -185 35 -124 297 -883 433 -1255 13
-36 42 -119 65 -185 23 -66 62 -174 85 -240 67 -187 65 -191 -10 -20 -20 44
-40 89 -45 100 -5 11 -14 31 -19 45 -10 27 -224 514 -272 618 -16 35 -29 65
-29 67 0 7 -206 469 -257 578 -26 53 -50 97 -55 97 -4 0 -8 -17 -8 -38 0 -24
-7 -46 -20 -60 -11 -12 -20 -24 -20 -27 0 -5 102 -240 240 -550 10 -22 32 -74
50 -115 18 -41 43 -97 55 -125 13 -27 72 -165 133 -305 216 -501 565 -1297
617 -1406 28 -61 59 -114 68 -117 27 -10 65 38 61 78 -10 107 -95 380 -314
1005 -39 113 -75 216 -80 230 -11 34 -124 354 -145 410 -9 25 -18 52 -20 60
-2 8 -11 35 -19 59 -9 25 -13 42 -10 38 9 -8 82 -174 264 -597 165 -386 308
-715 338 -781 11 -25 57 -129 101 -231 116 -268 155 -351 175 -367 27 -23 60
16 60 71 -1 77 -115 433 -419 1303 -8 22 -30 85 -49 140 -19 55 -33 101 -32
103 2 1 20 -37 41 -85 20 -48 45 -106 55 -128 10 -22 70 -159 133 -305 151
-348 454 -1035 478 -1081 24 -48 43 -54 69 -22 33 42 28 95 -27 283 -29 100
-231 726 -244 755 -7 17 -58 173 -65 200 -2 6 -39 116 -83 245 -44 129 -81
240 -81 245 0 10 67 -141 275 -615 466 -1066 458 -1050 491 -1050 31 0 53 43
48 97 -4 55 -184 593 -304 908 -10 28 -40 109 -65 180 -25 72 -54 153 -65 180
-68 182 -80 216 -80 227 1 7 14 -18 31 -57 41 -93 52 -119 54 -125 1 -3 9 -21
18 -40 9 -19 62 -140 118 -269 55 -129 111 -257 124 -285 12 -28 38 -87 58
-131 114 -262 154 -342 172 -342 23 0 56 42 57 73 2 72 -60 264 -333 1037 -95
267 -159 460 -155 464 2 2 34 -67 71 -154 75 -176 167 -387 195 -448 10 -22
52 -116 93 -210 199 -452 352 -796 379 -848 24 -48 33 -58 51 -55 12 2 28 16
36 32 12 26 12 39 -4 103 -19 82 -147 461 -309 913 -24 69 -68 190 -96 270
-28 80 -62 174 -75 210 -59 165 -38 120 225 -475 117 -264 220 -498 230 -520
10 -22 70 -159 133 -305 198 -457 241 -548 263 -557 23 -9 64 39 64 75 0 90
-180 619 -546 1606 -40 110 -72 201 -70 203 2 2 9 -11 16 -29 7 -18 22 -53 33
-78 11 -25 34 -79 52 -120 18 -41 42 -95 53 -120 11 -25 49 -112 85 -195 117
-269 308 -709 334 -765 119 -265 124 -274 150 -278 27 -4 53 32 53 73 0 42
-86 344 -160 565 -10 30 -64 197 -120 370 -56 173 -129 399 -164 503 -34 103
-60 187 -59 187 4 0 31 -62 128 -285 40 -93 84 -195 98 -225 14 -30 69 -156
122 -280 101 -234 104 -242 154 -353 17 -38 31 -70 31 -72 0 -5 112 -259 147
-335 14 -30 45 -100 68 -155 100 -237 119 -281 133 -303 36 -56 88 3 78 88 -3
27 -10 60 -16 74 -5 14 -8 26 -6 26 4 0 -153 464 -239 705 -31 88 -74 210 -95
270 -21 61 -68 191 -104 290 -64 176 -80 237 -36 133 60 -142 346 -801 372
-858 80 -173 111 -232 125 -237 10 -4 23 3 35 17 33 40 20 106 -51 265 -35 77
-75 169 -91 205 -15 36 -37 85 -48 110 -22 47 -239 542 -618 1404 -122 280
-232 519 -244 530 l-21 21 -26 -29 c-22 -26 -24 -35 -19 -84 7 -65 105 -360
286 -862 72 -201 133 -372 135 -380 3 -12 44 -125 72 -200 24 -63 53 -146 52
-150 0 -8 -55 107 -95 200 -52 121 -402 924 -429 985 -12 27 -39 88 -60 135
-98 221 -134 290 -152 290 -26 0 -53 -35 -53 -69 0 -46 53 -237 125 -456 37
-110 68 -204 69 -210 2 -5 6 -17 9 -25 8 -20 107 -311 112 -330 2 -8 45 -134
95 -279 49 -146 90 -270 90 -275 0 -6 -27 48 -59 119 -31 72 -67 150 -78 175
-12 25 -41 92 -66 150 -42 98 -105 241 -147 335 -16 37 -121 275 -245 560 -48
110 -158 357 -190 430 -8 17 -28 61 -45 100 -40 90 -55 100 -90 65 -51 -51
-23 -147 354 -1195 76 -209 145 -402 156 -430 60 -162 109 -300 106 -302 -2
-2 -25 45 -51 104 -26 60 -61 136 -76 170 -16 34 -40 91 -55 125 -14 35 -50
117 -79 183 -29 66 -90 206 -135 310 -76 175 -99 229 -135 310 -8 17 -70 159
-139 316 -166 382 -197 443 -223 447 -28 4 -53 -33 -53 -79 0 -70 70 -286 307
-954 47 -132 92 -258 99 -280 7 -22 31 -89 53 -149 23 -60 40 -111 38 -112 -2
-2 -16 27 -32 64 -16 37 -41 94 -56 127 -15 33 -39 89 -54 125 -70 167 -481
1103 -511 1163 -36 71 -57 83 -87 49 -43 -47 -9 -169 238 -877 42 -121 85
-245 95 -275 10 -30 50 -144 88 -253 104 -298 83 -258 -142 268 -24 55 -69
159 -101 230 -31 72 -91 207 -132 300 -140 316 -170 375 -193 375 -13 0 -40
-42 -45 -71 -10 -51 69 -307 247 -794 22 -60 42 -117 44 -125 2 -8 37 -107 79
-220 115 -311 127 -346 117 -335 -5 6 -19 35 -32 65 -12 30 -33 78 -45 105
-39 87 -60 133 -185 420 -67 154 -130 298 -140 320 -10 22 -32 74 -50 115 -18
41 -43 99 -56 128 -13 29 -35 79 -49 112 -37 89 -60 125 -80 129 -25 4 -55
-37 -55 -76 0 -36 27 -144 66 -264 13 -41 26 -84 28 -95 3 -10 104 -316 225
-679 121 -363 222 -669 226 -680 13 -47 -113 234 -271 599 -36 83 -71 164 -79
180 -7 17 -36 83 -63 146 -298 689 -370 847 -389 854 -22 9 -63 -38 -63 -72 0
-69 99 -387 300 -962 91 -260 200 -583 197 -586 -2 -2 -189 423 -570 1296 -74
169 -80 184 -82 190 0 3 -10 25 -22 50 -12 25 -60 133 -106 240 -154 351 -159
359 -201 310z m1642 -1225 c-3 -3 -9 2 -12 12 -6 14 -5 15 5 6 7 -7 10 -15 7
-18z m-144 -311 c3 -8 2 -12 -4 -9 -6 3 -10 10 -10 16 0 14 7 11 14 -7z m20
-340 c3 -8 2 -12 -4 -9 -6 3 -10 10 -10 16 0 14 7 11 14 -7z"/>
</g>
</svg>
