<svg version="1.1" id="Layer_1" xmlns="http://www.w3.org/2000/svg" xmlns:xlink="http://www.w3.org/1999/xlink" x="0px" y="0px"
	 viewBox="0 0 656 149.3" style="enable-background:new 0 0 656 149.3;" xml:space="preserve">
<style type="text/css">
	.st0{fill:#FFFFFF;}
	.st1{fill:none;stroke:#FFFFFF;stroke-width:5;stroke-miterlimit:10;}
</style>
<path class="st0" d="M187.9,90.9c3.9-3,4.5-1.3,7.9,2.1c1.7,1.7,6.1,4.6,3.3,7.1c-12.7,10.9-31.9,9.5-42.8-3.2
	c-5-5.8-7.6-13.2-7.3-20.8c0.2-8.1,3.8-15.7,9.8-21c5.7-4.7,13-7.1,20.4-6.9c3.7,0,7.3,0.7,10.7,2.1c2.3,0.9,4.5,2,6.5,3.5
	c4,3,2.2,4.9-1,8l-2.1,2.1c-1.6,1.6-2.7,2.7-4.8,1.3c-4-3-9.2-4.1-14.1-3c-15.7,4.1-14.8,32,4.4,32C182.2,94,185.3,92.9,187.9,90.9
	L187.9,90.9z M624,106.2c-2.6,0-4.8-2.1-4.8-4.8V39.6c0-2.6,2.1-4.8,4.8-4.8h5.1c2.6,0,4.8,2.1,4.8,4.8v61.9c0,2.6-2.1,4.8-4.8,4.8
	L624,106.2z M597.1,99.2c-4.8,5.2-11.7,8.1-18.8,8c-16,0-23.6-13.2-23.6-28V54.1c0-2.6,2.1-4.8,4.8-4.8h5.1c2.6,0,4.8,2.1,4.8,4.8
	v25c-0.9,7.2,4.2,13.7,11.3,14.6c0.6,0.1,1.2,0.1,1.9,0.1c8-0.2,14.3-6.9,14.1-14.8c0-0.2,0-0.4,0-0.6v-9c0-0.3,0-0.7,0-1V54.1
	c0-2.6,2.1-4.8,4.8-4.8h5.1c2.6,0,4.8,2.1,4.8,4.8v47.5c0,2.6-2.1,4.7-4.7,4.7l0,0h-4.3c-2.6-0.1-4.6-2.1-4.7-4.7v-2.4H597.1z
	 M535.7,49.5h10c2.6,0,4.7,2.2,4.7,4.8v3.3c0,2.6-2.1,4.8-4.7,4.8h-10v39.1c0,2.6-2.1,4.8-4.8,4.8h-5.1c-2.6,0-4.8-2.1-4.8-4.8v-54
	c-1-11.3,7.3-21.2,18.5-22.2c0.1,0,0.1,0,0.2,0h7.8c2.6,0,4.7,2.2,4.7,4.8v3c0,2.6-2.1,4.8-4.7,4.8h-3.8c-5.7,0-8.1,4.4-8.1,9.7
	L535.7,49.5L535.7,49.5z M500.1,49.5H511c2.6,0,4.7,2.1,4.7,4.7l0,0v3.2c0,2.6-2.1,4.7-4.7,4.7l0,0h-10.9V86c0,4.6,2.2,7.3,6.9,7.3
	h2.2c2.6,0,4.7,2.1,4.7,4.7l0,0v3.2c0,2.6-2.1,4.7-4.7,4.7l0,0h-6.6c-11.8-0.7-17.1-8.4-17.1-19.9V39.7c0-2.6,2.1-4.7,4.7-4.7l0,0h5
	c2.6,0,4.7,2.1,4.7,4.7l0,0L500.1,49.5L500.1,49.5z M342.3,49.5h10.9c2.6,0,4.7,2.1,4.7,4.7v3.2c0,2.6-2.1,4.7-4.7,4.7h-10.6V86
	c0,4.6,2.2,7.3,6.9,7.3h2.2c2.6,0,4.7,2.1,4.7,4.7v3.2c0,2.6-2.1,4.7-4.7,4.7h-3.3c-12.9,0-20.3-5.5-20.3-20V39.7
	c0-2.6,2.1-4.7,4.7-4.7h5c2.6,0,4.7,2.1,4.7,4.7v9.8H342.3z M278.3,56.4c4.7-5,11.3-7.9,18.2-8c15.9,0,24.3,13.1,24.3,28v25.1
	c0,2.6-2.1,4.8-4.8,4.8l0,0h-5.1c-2.6,0-4.8-2.1-4.8-4.8l0,0v-25c0.9-7.2-4.2-13.7-11.3-14.6c-0.6-0.1-1.3-0.1-1.9-0.1
	c-8,0.2-14.3,6.9-14,14.8c0,0.2,0,0.3,0,0.5v24.3c0,2.6-2.1,4.7-4.7,4.7h-5c-2.6,0-4.7-2.1-4.7-4.7V54c0-2.6,2.1-4.7,4.7-4.7h4.3
	c2.6,0.1,4.6,2.1,4.7,4.7L278.3,56.4L278.3,56.4z M436.2,56.4c4.7-5,11.3-7.9,18.2-8c15.9,0,24.3,13.1,24.3,28v25.1
	c0,2.6-2.1,4.8-4.8,4.8h-5.1c-2.6,0-4.8-2.1-4.8-4.8v-25c0.9-7.2-4.2-13.7-11.3-14.6c-0.6-0.1-1.3-0.1-1.9-0.1
	c-8,0.2-14.3,6.9-14,14.8c0,0.2,0,0.3,0,0.5v24.3c0,2.6-2.1,4.7-4.7,4.7H427c-2.6,0-4.7-2.1-4.7-4.7V54c0-2.6,2.1-4.7,4.7-4.7h4.3
	c2.6,0.1,4.6,2.1,4.7,4.7v2.5L436.2,56.4z M229.8,48.2c-15.8-0.5-29,11.8-29.5,27.6c0,0.7,0,1.4,0,2.1c0,16.4,13.3,29.6,29.6,29.6
	s29.6-13.3,29.6-29.6c0.5-15.9-11.9-29.2-27.8-29.7C231.1,48.2,230.4,48.2,229.8,48.2z M373.4,83.2c1.8,7.3,8.8,12.2,16.3,11.2
	c3.7-0.1,7.4-0.9,10.7-2.4l1.6-0.8c1.8-1,3.4-1.6,5,0l2.6,2.6c0.8,0.8,1.6,1.7,2.3,2.5c2.4,3,0.7,3.8-2,5.6
	c-6.1,4-13.2,6.1-20.5,6.1c-18.8,0-31.3-11.4-31.3-30.4c-0.7-15.7,11.4-29.1,27.2-29.8c1.1,0,2.1,0,3.2,0c18.2,0,28.7,10.7,29,29
	c0,5,0.3,6.6-4.9,6.6L373.4,83.2z M230.3,61.5c8.6,0.2,15.4,7.3,15.2,15.9c0,0.1,0,0.3,0,0.4c0.7,8.2-5.3,15.5-13.6,16.3
	c-8.2,0.7-15.5-5.3-16.3-13.6c-0.1-0.9-0.1-1.8,0-2.7c-0.7-8.3,5.5-15.6,13.8-16.2c0.4,0,0.8,0,1.1,0L230.3,61.5z M374.1,70.8h29.2
	c-1.2-6.7-7.5-11.2-14.2-10.2C382.4,60.3,376.3,64.5,374.1,70.8L374.1,70.8z"/>
<g>
	<path class="st1" d="M100.6,52.6c0,0,9.8,11.3,19.7,0.9s-5.8-21.6-5.8-21.6S82.1,3,43.2,32.2c0,0-21.3,16.3-20.3,46.6
		c1,30.3,26.5,44.6,26.5,44.6s30.9,20.9,63.6-2.5c0,0,15.9-8.4,6.8-22.3c0,0-9-10.1-16.8-1.6s-28,17.7-46.1,0.7s-8.3-52.3,20.4-53.4
		C77.3,44.3,89.6,42.7,100.6,52.6z"/>
	<circle class="st1" cx="47.7" cy="44.4" r="12.2"/>
	<circle class="st1" cx="48.3" cy="106.6" r="12.2"/>
</g>
</svg>
